<svg xmlns="http://www.w3.org/2000/svg" width="234" height="78" viewBox="0 0 234 78" fill="none"><path fill-rule="evenodd" clip-rule="evenodd" d="M15.2921 31.2365V17.3841H29.1446V0L56.1797 11.6604V22.2248L67.6879 28.4356V75.3208H69.8451V78H65.0087V30.0187L56.1797 25.2693V78H45.4935V16.5012L53.5005 20.7939V13.4262L31.8542 4.07963V17.3841H39.8307V78H29.1446V20.0632H17.9713V31.2365H25.9478V78H15.2921V33.9157H7.37642V78H0V75.3208H4.69727V31.2365H15.2921ZM37.1516 75.3208V20.0632H31.8542V75.3208H37.1516ZM23.2687 75.3208V33.9157H17.9713V75.3208H23.2687ZM53.5005 23.8384L48.1727 20.9766V75.3208H53.5005V23.8384Z" fill="#013e51"></path><path d="M96.3607 54V24.4446H108.183C110.29 24.4446 111.994 24.8688 113.293 25.7172C114.593 26.5518 115.544 27.6054 116.146 28.8779C116.748 30.1505 117.049 31.4367 117.049 32.7366C117.049 34.3922 116.673 35.7674 115.921 36.862C115.182 37.9566 114.162 38.6887 112.862 39.0581V38.0319C114.71 38.415 116.092 39.2702 117.008 40.5975C117.939 41.9247 118.404 43.4093 118.404 45.0513C118.404 46.8164 118.076 48.3694 117.419 49.7104C116.776 51.0513 115.791 52.1049 114.463 52.8711C113.136 53.6237 111.467 54 109.455 54H96.3607ZM102.026 48.7457H108.881C109.633 48.7457 110.304 48.5884 110.892 48.2736C111.48 47.9453 111.939 47.4937 112.267 46.919C112.609 46.3307 112.78 45.6397 112.78 44.846C112.78 44.1482 112.637 43.5256 112.349 42.9783C112.062 42.431 111.624 42 111.036 41.6853C110.461 41.3569 109.743 41.1927 108.881 41.1927H102.026V48.7457ZM102.026 35.9794H108.101C108.73 35.9794 109.291 35.87 109.784 35.651C110.276 35.4321 110.666 35.0969 110.954 34.6453C111.241 34.1801 111.385 33.5849 111.385 32.8597C111.385 31.9566 111.104 31.1972 110.543 30.5815C109.982 29.9657 109.168 29.6579 108.101 29.6579H102.026V35.9794ZM129.517 54.6568C127.779 54.6568 126.363 54.3626 125.268 53.7742C124.174 53.1859 123.318 52.4401 122.703 51.5371C122.101 50.634 121.67 49.6967 121.41 48.7252C121.15 47.74 120.992 46.8438 120.938 46.0365C120.883 45.2292 120.856 44.6408 120.856 44.2714V31.8335H126.52V42.301C126.52 42.8073 126.548 43.4572 126.602 44.2508C126.657 45.0308 126.828 45.8175 127.116 46.6112C127.403 47.4048 127.868 48.0684 128.511 48.602C129.168 49.1357 130.092 49.4025 131.282 49.4025C131.761 49.4025 132.274 49.3272 132.821 49.1767C133.369 49.0262 133.882 48.7389 134.361 48.3147C134.84 47.8768 135.23 47.2406 135.531 46.4059C135.845 45.5576 136.003 44.4492 136.003 43.0809L139.204 44.5998C139.204 46.3512 138.849 47.9931 138.137 49.5256C137.426 51.0581 136.352 52.2965 134.915 53.2406C133.492 54.1847 131.692 54.6568 129.517 54.6568ZM136.7 54V46.6522H136.003V31.8335H141.626V54H136.7ZM146.542 28.7548V23.8289H152.124V28.7548H146.542ZM146.542 54V31.8335H152.124V54H146.542ZM157.457 54V23.8289H163.039V54H157.457ZM181.261 54C179.728 54.2873 178.223 54.4105 176.745 54.3694C175.281 54.3421 173.968 54.0889 172.805 53.61C171.655 53.1174 170.78 52.3307 170.178 51.2497C169.63 50.2372 169.343 49.2109 169.316 48.171C169.288 47.1174 169.275 45.927 169.275 44.5998V25.6761H174.857V44.2714C174.857 45.1334 174.864 45.9133 174.878 46.6112C174.905 47.2953 175.049 47.8426 175.309 48.2531C175.801 49.0331 176.588 49.4572 177.669 49.5256C178.75 49.5941 179.947 49.5393 181.261 49.3615V54ZM165.498 36.1436V31.8335H181.261V36.1436H165.498Z" fill="white"></path><path d="M193.22 54.6568C191.482 54.6568 190.066 54.3626 188.971 53.7742C187.877 53.1859 187.022 52.4401 186.406 51.5371C185.804 50.634 185.373 49.6967 185.113 48.7252C184.853 47.74 184.695 46.8438 184.641 46.0365C184.586 45.2292 184.559 44.6408 184.559 44.2714V31.8335H190.223V42.301C190.223 42.8073 190.251 43.4572 190.305 44.2508C190.36 45.0308 190.531 45.8175 190.819 46.6112C191.106 47.4048 191.571 48.0684 192.214 48.602C192.871 49.1357 193.795 49.4025 194.985 49.4025C195.464 49.4025 195.977 49.3272 196.524 49.1767C197.072 49.0262 197.585 48.7389 198.064 48.3147C198.543 47.8768 198.933 47.2406 199.234 46.4059C199.548 45.5576 199.706 44.4492 199.706 43.0809L202.908 44.5998C202.908 46.3512 202.552 47.9931 201.84 49.5256C201.129 51.0581 200.055 52.2965 198.618 53.2406C197.195 54.1847 195.396 54.6568 193.22 54.6568ZM200.404 54V46.6522H199.706V31.8335H205.329V54H200.404ZM220.712 54.6157C218.509 54.6157 216.669 54.1026 215.191 53.0764C213.713 52.0502 212.598 50.6545 211.846 48.8894C211.107 47.1243 210.737 45.1334 210.737 42.9167C210.737 40.7001 211.107 38.7092 211.846 36.9441C212.585 35.179 213.672 33.7833 215.109 32.7571C216.546 31.7309 218.318 31.2177 220.425 31.2177C222.546 31.2177 224.393 31.724 225.967 32.7366C227.54 33.7491 228.758 35.1379 229.62 36.903C230.496 38.6545 230.934 40.659 230.934 42.9167C230.934 45.1334 230.502 47.1243 229.64 48.8894C228.792 50.6545 227.602 52.0502 226.069 53.0764C224.537 54.1026 222.751 54.6157 220.712 54.6157ZM209.793 63.8518V31.8335H214.719V47.0217H215.417V63.8518H209.793ZM219.809 49.6488C221.013 49.6488 221.998 49.3478 222.765 48.7457C223.531 48.1437 224.099 47.3364 224.468 46.3238C224.838 45.2976 225.022 44.1619 225.022 42.9167C225.022 41.6853 224.831 40.5633 224.448 39.5507C224.065 38.5245 223.469 37.7103 222.662 37.1083C221.868 36.4926 220.849 36.1847 219.604 36.1847C218.441 36.1847 217.497 36.4652 216.772 37.0262C216.06 37.5872 215.54 38.374 215.212 39.3865C214.883 40.3991 214.719 41.5758 214.719 42.9167C214.719 44.2577 214.883 45.4344 215.212 46.447C215.54 47.4595 216.074 48.2463 216.813 48.8073C217.565 49.3683 218.564 49.6488 219.809 49.6488Z" fill="#013e51"></path></svg>